<svg width="38" height="38" viewBox="0 0 38 38" fill="none" xmlns="http://www.w3.org/2000/svg">
<path d="M29.3994 17.5933C29.9291 16.887 29.7708 15.8641 29.0401 15.31L19.633 8.22262L19.8339 8.37484V5.2696H21.49C21.8249 5.2696 22.0989 4.99561 22.0989 4.66074C22.0989 4.32586 21.8249 4.05187 21.49 4.05187H19.8218V2.60887C19.8218 2.27399 19.5478 2 19.2129 2C18.878 2 18.604 2.27399 18.604 2.60887V4.05187H16.9358C16.6009 4.05187 16.3269 4.32586 16.3269 4.66074C16.3269 4.99561 16.6009 5.2696 16.9358 5.2696H18.6102V8.38092L9.41618 15.316C8.68554 15.8639 8.52726 16.8929 9.05695 17.5992C9.58664 18.3055 10.6217 18.4333 11.3463 17.8854L19.2251 11.9491L27.1039 17.8854C27.8346 18.4333 28.8635 18.3055 29.3933 17.5992L29.3994 17.5933Z" fill="white"/>
<path d="M19.2259 13.4639L12.084 18.846C11.81 19.0531 11.4994 19.2053 11.1768 19.3027V36.6982H16.1572V32.1257C16.1572 30.3905 17.5332 28.9718 19.2137 28.9718C20.8942 28.9718 22.2702 30.3904 22.2702 32.1257V36.6982H27.2811V19.3027C26.9584 19.2053 26.6539 19.0531 26.3739 18.846L19.2259 13.4639ZM23.153 20.5817C23.153 20.8435 22.9399 21.0566 22.6781 21.0566H20.3583V25.6415C20.3583 25.9033 20.1452 26.1164 19.8834 26.1164H18.5683C18.3064 26.1164 18.0933 25.9033 18.0933 25.6415V21.0566H15.7735C15.5117 21.0566 15.2986 20.8435 15.2986 20.5817V19.2665C15.2986 19.0047 15.5117 18.7916 15.7735 18.7916H18.0933V16.5266C18.0933 16.2648 18.3064 16.0517 18.5683 16.0517H19.8834C20.1452 16.0517 20.3583 16.2648 20.3583 16.5266V18.7916H22.6781C22.9399 18.7916 23.153 19.0047 23.153 19.2665V20.5817Z" fill="white"/>
<path d="M4.85596 30.2403V36.0305C4.85596 36.4019 5.16039 36.7064 5.53789 36.7064H9.95835V26.5078L5.48918 29.8748C5.28825 30.021 5.07515 30.149 4.85596 30.2403Z" fill="white"/>
<path d="M28.498 26.5322V36.7062H32.8881C33.2656 36.7062 33.57 36.4018 33.57 36.0304V30.2402C33.3509 30.1489 33.1377 30.021 32.9368 29.8749L28.498 26.5322Z" fill="white"/>
<path d="M2.46315 28.6202C2.99287 29.3265 4.02793 29.4544 4.75249 28.9064L9.95815 24.9793V20.9609L2.82243 26.3373C2.09179 26.8852 1.93346 27.9139 2.46315 28.6202Z" fill="white"/>
<path d="M35.6034 26.3375L28.498 20.9795V25.0041L33.6733 28.907C34.3979 29.455 35.4329 29.3271 35.9626 28.6209C36.4924 27.9146 36.334 26.8855 35.6034 26.3375Z" fill="white"/>
</svg>
