<svg x="0px" y="0px" width="96.507px" height="154.835px" viewBox="0 0 96.507 154.835" enable-background="new 0 0 96.507 154.835" xml:space="preserve">
<g>
	<g transform="translate(-5286.000000, -3586.000000)">
		<path fill="#ffffff" d="M5334.254,3655.997c-11.851,0-21.458-9.607-21.458-21.458c0-11.851,9.607-21.458,21.458-21.458
			s21.458,9.607,21.458,21.458C5355.711,3646.39,5346.105,3655.997,5334.254,3655.997 M5382.486,3632.985
			c-0.028-0.775-0.092-1.515-0.183-2.229c-1.153-24.907-22.25-44.756-48.113-44.756c-26.603,0-48.169,20.999-48.169,46.904
			c0,0.02,0.001,0.04,0.001,0.061c0,0.007-0.001,0.013-0.001,0.02c-1.184,32.324,48.169,107.85,48.169,107.85l0.064-0.761
			l0.063,0.761C5334.317,3740.834,5383.67,3665.309,5382.486,3632.985"></path>
	</g>
</g>
</svg>