<svg width="38" height="38" viewBox="0 0 38 38" fill="none" xmlns="http://www.w3.org/2000/svg">
<path fill-rule="evenodd" clip-rule="evenodd" d="M10.4687 2.58203L4.49609 8.5567L10.4687 14.5314L16.4434 8.5567L10.4687 2.58203Z" fill="white"/>
<path fill-rule="evenodd" clip-rule="evenodd" d="M26.4241 4.61719L28.2643 8.01471L32.0649 8.71497L29.4023 11.516L29.9092 15.3472L26.4241 13.68L22.937 15.3472L23.4459 11.516L20.7812 8.71497L24.5818 8.01471L26.4241 4.61719Z" fill="white"/>
<path fill-rule="evenodd" clip-rule="evenodd" d="M6.23251 16.832L4.49609 17.8723L10.0087 27.0816C6.3689 27.7045 4.07064 30.9575 5.83963 33.9133C6.93278 35.7393 9.40814 36.1647 11.1771 35.1062C13.282 33.8461 14.7884 31.1326 13.17 28.4211L6.23251 16.832Z" fill="white"/>
<path fill-rule="evenodd" clip-rule="evenodd" d="M21.8453 34.2833H21.8087C21.2631 34.2833 20.8112 33.8497 20.7929 33.3001C20.6911 30.324 21.1797 27.5046 25.4037 27.0303C27.022 26.8491 27.1502 26.2832 27.4312 25.0414C27.8973 22.9895 28.6668 21.1289 32.9295 20.9049C33.5097 20.8642 33.9718 21.306 34.0003 21.8678C34.0288 22.4297 33.5992 22.9101 33.0374 22.9386C29.9595 23.0994 29.7437 24.0521 29.418 25.4913C29.1086 26.8491 28.6872 28.7097 25.6296 29.0557C23.5614 29.2858 22.7145 29.9168 22.8265 33.2309C22.8469 33.7927 22.4051 34.263 21.8453 34.2833Z" fill="white"/>
</svg>
