<svg width="26" height="26" viewBox="0 0 26 26" fill="none" xmlns="http://www.w3.org/2000/svg">
<path d="M13 0C5.82029 0 0 5.82034 0 13C0 20.1796 5.82029 26 13 26C20.1797 26 26 20.1796 26 13C26 5.82034 20.1797 0 13 0ZM13 4.81481C13.5318 4.81481 13.963 5.24593 13.963 5.77778V12.4433L18.8981 15.3021C19.3587 15.568 19.5252 16.1505 19.2593 16.6111C18.9933 17.0717 18.3958 17.2231 17.9352 16.9572C16.1322 15.9153 14.314 14.8643 12.5185 13.8276C12.2311 13.6609 12.037 13.3561 12.037 13V5.77778C12.037 5.24593 12.4682 4.81481 13 4.81481Z" fill="white"></path>
</svg>