<svg xmlns="http://www.w3.org/2000/svg" width="196" height="237" viewBox="0 0 196 237" version="1.1">
	<path d="M 111.299 4.569 C 109.538 5.467, 107.431 7.219, 106.617 8.461 C 105.343 10.406, 104.469 10.662, 100.319 10.304 C 94.603 9.811, 90.093 12.159, 86.995 17.241 C 81.073 26.952, 88.112 37.813, 104.399 44.094 C 116.624 48.808, 118.228 48.881, 121.286 44.859 C 122.691 43.012, 125.553 38.125, 127.648 34 C 134.043 21.405, 133.310 10.525, 125.733 5.561 C 122.041 3.142, 115.037 2.661, 111.299 4.569 M 112.751 13.250 C 112.038 14.488, 110.967 16.400, 110.370 17.500 C 108.906 20.200, 106.565 20.496, 102.379 18.510 C 99.138 16.971, 98.696 16.969, 96.386 18.483 C 91.022 21.998, 91.705 28.459, 97.871 32.524 C 99.867 33.840, 104.589 36.076, 108.365 37.493 C 116.311 40.475, 115.690 40.823, 121.027 30.396 C 125.258 22.130, 125.835 17.317, 123.023 13.750 C 120.184 10.149, 114.690 9.882, 112.751 13.250 M 145.713 26.011 C 144.308 27.117, 142.380 30.058, 141.429 32.546 C 139.805 36.798, 139.801 37.578, 141.359 45.506 C 143.389 55.837, 144.713 58.890, 147.466 59.581 C 150.932 60.451, 166.076 58.157, 169.871 56.187 C 174.976 53.538, 177.500 49.671, 177.500 44.500 C 177.500 38.603, 174.634 34.894, 168.671 33.074 C 166.102 32.289, 164 31.092, 164 30.413 C 164 29.733, 162.615 28.013, 160.923 26.589 C 156.959 23.253, 149.576 22.973, 145.713 26.011 M 149.515 32.984 C 148.063 34.588, 147.824 36.072, 148.264 40.734 C 149.113 49.712, 150.328 52.005, 154.225 51.976 C 159.190 51.938, 166.256 50.078, 168.235 48.287 C 169.206 47.409, 170 45.690, 170 44.467 C 170 41.203, 167.596 39.666, 163.649 40.406 C 159.857 41.117, 158.676 40.168, 157.559 35.510 C 156.396 30.661, 152.674 29.492, 149.515 32.984 M 46.239 40.250 C 44.850 41.976, 37.661 61.886, 35.135 71 C 26.687 101.489, 26.345 125.374, 34.202 136.214 C 35.241 137.647, 34.075 141.978, 27.067 162.714 C 22.460 176.346, 18.361 187.877, 17.958 188.337 C 17.556 188.797, 14.749 188.393, 11.721 187.438 C 5.918 185.609, 3.354 185.914, 2.341 188.555 C 1.296 191.276, 4.138 192.896, 19.052 198.087 C 34.970 203.628, 38.345 203.830, 37.813 199.215 C 37.545 196.887, 36.645 196.197, 31.500 194.376 C 28.200 193.208, 25.500 191.858, 25.500 191.376 C 25.500 190.894, 29.302 179.343, 33.948 165.707 L 42.396 140.913 48.629 137.938 C 55.220 134.793, 60.381 129.735, 66.934 120 C 76.068 106.431, 84.894 87.024, 90.700 67.740 C 93.888 57.153, 94.115 55.687, 92.774 54.346 C 91.158 52.730, 52.030 39, 49.040 39 C 48.053 39, 46.792 39.563, 46.239 40.250 M 48.224 55.204 C 37.880 83.827, 33.531 111.996, 37.401 125.308 C 38.326 128.491, 39.741 131.347, 40.544 131.655 C 48.227 134.604, 63.362 115.726, 74.921 88.779 C 80.463 75.857, 85.297 61.217, 84.612 59.431 C 84.355 58.762, 77.250 55.879, 68.823 53.024 C 60.395 50.169, 52.988 47.625, 52.361 47.371 C 51.682 47.094, 50.014 50.252, 48.224 55.204 M 113 76.898 C 88.615 86.197, 89.665 84.634, 96.065 102.111 C 109.467 138.712, 128.425 166.090, 142.339 168.935 C 145.397 169.561, 145.659 170.096, 155.149 195.037 C 160.477 209.042, 164.536 220.778, 164.168 221.119 C 163.801 221.459, 161.369 222.530, 158.764 223.499 C 156.159 224.468, 153.535 225.856, 152.932 226.582 C 151.278 228.575, 152.779 231.997, 155.317 232.021 C 158.725 232.054, 186.810 220.939, 187.435 219.310 C 188.132 217.493, 186.343 214, 184.715 214.001 C 184.047 214.001, 181.071 214.924, 178.102 216.053 C 175.133 217.181, 172.378 217.743, 171.979 217.302 C 171.580 216.861, 167.129 205.557, 162.087 192.182 L 152.920 167.864 155.710 162.182 C 158.328 156.849, 158.496 155.731, 158.427 144 C 158.376 135.112, 157.711 128.466, 156.125 121 C 153.466 108.473, 146.488 87.090, 141.629 76.572 C 138.725 70.288, 137.736 69.007, 135.815 69.041 C 134.542 69.063, 124.275 72.599, 113 76.898 M 117.322 83.359 C 108.424 86.737, 100.861 89.788, 100.515 90.141 C 99.669 91.001, 106.107 108.104, 111.998 120.646 C 123.841 145.862, 141.504 165.976, 147.462 161.032 C 148.252 160.376, 149.429 158.231, 150.078 156.264 C 151.613 151.612, 150.696 131.127, 148.499 121 C 146.591 112.207, 139.240 89.736, 135.857 82.359 L 133.500 77.218 117.322 83.359" stroke="none" fill="black" fill-rule="evenodd"/>
</svg>